Input #0, mov,mp4,m4a,3gp,3g2,mj2, from '/home/hbattu/projects/huberman-gpt/huberman-audio/mp3/tmpgv3ryfit.mp4':
  Metadata:
    major_brand     : dash
    minor_version   : 0
    compatible_brands: iso6mp41
    creation_time   : 2023-01-24T04:38:32.000000Z
  Duration: 04:22:14.24, start: 0.000000, bitrate: 129 kb/s
    Stream #0:0(eng): Audio: aac (LC) (mp4a / 0x6134706D), 44100 Hz, stereo, fltp, 0 kb/s (default)
    Metadata:
      creation_time   : 2023-01-24T04:38:32.000000Z
      handler_name    : ISO Media file produced by Google Inc.
Stream mapping:
  Stream #0:0 -> #0:0 (aac (native) -> mp3 (libmp3lame))
Press [q] to stop, [?] for help
[graph_0_in_0_0 @ 0x5567281915c0] tb:1/44100 samplefmt:fltp samplerate:44100 chlayout:0x3
Output #0, mp3, to '../huberman-audio/mp3/O1YRwWmue4Y.mp3':
  Metadata:
    major_brand     : dash
    minor_version   : 0
    compatible_brands: iso6mp41
    TSSE            : Lavf58.29.100
    Stream #0:0(eng): Audio: mp3 (libmp3lame), 44100 Hz, stereo, fltp, delay 1105 (default)
    Metadata:
      creation_time   : 2023-01-24T04:38:32.000000Z
      handler_name    : ISO Media file produced by Google Inc.
      encoder         : Lavc58.54.100 libmp3lame
No more output streams to write to, finishing.
size=  245849kB time=04:22:14.25 bitrate= 128.0kbits/s speed=96.1x    
[AVIOContext @ 0x55672806d900] Statistics: 0 seeks, 328 writeouts
video:0kB audio:245848kB subtitle:0kB other streams:0kB global headers:0kB muxing overhead: 0.000137%
Input file #0 (/home/hbattu/projects/huberman-gpt/huberman-audio/mp3/tmpgv3ryfit.mp4):
  Input stream #0:0 (audio): 677617 packets read (251747776 bytes); 677617 frames decoded (693879808 samples); 
  Total: 677617 packets (251747776 bytes) demuxed
Output file #0 (../huberman-audio/mp3/O1YRwWmue4Y.mp3):
  Output stream #0:0 (audio): 602327 frames encoded (693879808 samples); 602328 packets muxed (251748519 bytes); 
  Total: 602328 packets (251748519 bytes) muxed
[AVIOContext @ 0x5567280967c0] Statistics: 2 seeks, 962 writeouts
[AVIOContext @ 0x556728076880] Statistics: 254641724 bytes read, 0 seeks
